<mxfile host="Electron" agent="Mozilla/5.0 (Macintosh; Intel Mac OS X 10_15_7) AppleWebKit/537.36 (KHTML, like Gecko) draw.io/27.0.5 Chrome/134.0.6998.205 Electron/35.3.0 Safari/537.36" version="27.0.5">
  <diagram name="Страница — 1" id="spHd-ucAJgHMV7rk4M8j">
    <mxGraphModel dx="867" dy="1873" grid="1" gridSize="10" guides="1" tooltips="1" connect="1" arrows="1" fold="1" page="1" pageScale="1" pageWidth="827" pageHeight="1169" math="0" shadow="0">
      <root>
        <mxCell id="qZmKMY-UGPdEu0IypBca-0" />
        <mxCell id="qZmKMY-UGPdEu0IypBca-1" parent="qZmKMY-UGPdEu0IypBca-0" />
        <mxCell id="qZmKMY-UGPdEu0IypBca-2" value="&lt;span style=&quot;color: rgb(50, 52, 55); font-family: system-ui, sans-serif, &amp;quot;Apple Color Emoji&amp;quot;, &amp;quot;Segoe UI Emoji&amp;quot;, &amp;quot;Segoe UI Symbol&amp;quot;, &amp;quot;Noto Color Emoji&amp;quot;; font-size: 14px; font-style: normal; font-variant-ligatures: normal; font-variant-caps: normal; font-weight: 400; letter-spacing: normal; orphans: 2; text-align: start; text-indent: 0px; text-transform: none; widows: 2; word-spacing: 0px; -webkit-text-stroke-width: 0px; white-space: break-spaces; background-color: rgb(248, 249, 252); text-decoration-thickness: initial; text-decoration-style: initial; text-decoration-color: initial; display: inline !important; float: none;&quot;&gt;КЕЙС Парковка. &lt;br&gt;На парковке доступно определённое количество мест. Они могут быть 3х размеров — S, M и L. &lt;/span&gt;&lt;div&gt;&lt;span style=&quot;color: rgb(50, 52, 55); font-family: system-ui, sans-serif, &amp;quot;Apple Color Emoji&amp;quot;, &amp;quot;Segoe UI Emoji&amp;quot;, &amp;quot;Segoe UI Symbol&amp;quot;, &amp;quot;Noto Color Emoji&amp;quot;; font-size: 14px; font-style: normal; font-variant-ligatures: normal; font-variant-caps: normal; font-weight: 400; letter-spacing: normal; orphans: 2; text-align: start; text-indent: 0px; text-transform: none; widows: 2; word-spacing: 0px; -webkit-text-stroke-width: 0px; white-space: break-spaces; background-color: rgb(248, 249, 252); text-decoration-thickness: initial; text-decoration-style: initial; text-decoration-color: initial; display: inline !important; float: none;&quot;&gt;На парковку заезжают транспортные средства разных типов — мотоциклы, легковые автомобили и грузовые. Они занимают места следующим образом: S — помещается один мотоцикл M — два мотоцикла или одна легковушка L — 4 мотоцикла, 2 легковушки или один грузовичок.&lt;/span&gt;&lt;/div&gt;&lt;div&gt;&lt;span style=&quot;color: rgb(50, 52, 55); font-family: system-ui, sans-serif, &amp;quot;Apple Color Emoji&amp;quot;, &amp;quot;Segoe UI Emoji&amp;quot;, &amp;quot;Segoe UI Symbol&amp;quot;, &amp;quot;Noto Color Emoji&amp;quot;; font-size: 14px; font-style: normal; font-variant-ligatures: normal; font-variant-caps: normal; font-weight: 400; letter-spacing: normal; orphans: 2; text-align: start; text-indent: 0px; text-transform: none; widows: 2; word-spacing: 0px; -webkit-text-stroke-width: 0px; white-space: break-spaces; background-color: rgb(248, 249, 252); text-decoration-thickness: initial; text-decoration-style: initial; text-decoration-color: initial; display: inline !important; float: none;&quot;&gt; Паркинг должен показывать количество свободных мест всех типов. При въезде транспортного средства ему нужно указать, на какое место встать. Чем плотнее заставлена парковка — тем лучше. Для каждого транспортного средства своя ставка. &lt;/span&gt;&lt;/div&gt;&lt;div&gt;&lt;span style=&quot;color: rgb(50, 52, 55); font-family: system-ui, sans-serif, &amp;quot;Apple Color Emoji&amp;quot;, &amp;quot;Segoe UI Emoji&amp;quot;, &amp;quot;Segoe UI Symbol&amp;quot;, &amp;quot;Noto Color Emoji&amp;quot;; font-size: 14px; font-style: normal; font-variant-ligatures: normal; font-variant-caps: normal; font-weight: 400; letter-spacing: normal; orphans: 2; text-align: start; text-indent: 0px; text-transform: none; widows: 2; word-spacing: 0px; -webkit-text-stroke-width: 0px; white-space: break-spaces; background-color: rgb(248, 249, 252); text-decoration-thickness: initial; text-decoration-style: initial; text-decoration-color: initial; display: inline !important; float: none;&quot;&gt;Также прайс зависит от времени стоянки. Например, для легкового автомобиля: 💲 первые 10 минут — бесплатно &lt;br&gt;💲 следующие 50 минут — 300 рублей &lt;br&gt;💲 1-3 час — 250 рублей в час &lt;br&gt;💲 3 час и далее — 200 рублей в час Оплата считается, когда транспортное средство покидает парковку.&lt;/span&gt;&lt;/div&gt;" style="whiteSpace=wrap;html=1;aspect=fixed;fillColor=#dae8fc;strokeColor=#6c8ebf;" parent="qZmKMY-UGPdEu0IypBca-1" vertex="1">
          <mxGeometry x="10" y="10" width="400" height="400" as="geometry" />
        </mxCell>
        <mxCell id="qZmKMY-UGPdEu0IypBca-3" value="Тип транспортного средства" style="swimlane;childLayout=stackLayout;horizontal=1;startSize=50;horizontalStack=0;rounded=1;fontSize=14;fontStyle=0;strokeWidth=2;resizeParent=0;resizeLast=1;shadow=0;dashed=0;align=center;arcSize=4;whiteSpace=wrap;html=1;" parent="qZmKMY-UGPdEu0IypBca-1" vertex="1">
          <mxGeometry x="860" y="-150" width="150" height="120" as="geometry" />
        </mxCell>
        <mxCell id="qZmKMY-UGPdEu0IypBca-4" value="*Номер&lt;div&gt;Тип средства&lt;/div&gt;" style="align=left;strokeColor=none;fillColor=none;spacingLeft=4;spacingRight=4;fontSize=12;verticalAlign=top;resizable=0;rotatable=0;part=1;html=1;whiteSpace=wrap;" parent="qZmKMY-UGPdEu0IypBca-3" vertex="1">
          <mxGeometry y="50" width="150" height="70" as="geometry" />
        </mxCell>
        <mxCell id="qZmKMY-UGPdEu0IypBca-5" value="Вместимость места" style="swimlane;childLayout=stackLayout;horizontal=1;startSize=50;horizontalStack=0;rounded=1;fontSize=14;fontStyle=0;strokeWidth=2;resizeParent=0;resizeLast=1;shadow=0;dashed=0;align=center;arcSize=4;whiteSpace=wrap;html=1;" parent="qZmKMY-UGPdEu0IypBca-1" vertex="1">
          <mxGeometry x="550" y="-150" width="160" height="120" as="geometry" />
        </mxCell>
        <mxCell id="qZmKMY-UGPdEu0IypBca-6" value="*Номер&lt;div&gt;Тип места&lt;/div&gt;&lt;div&gt;Тип средства&lt;/div&gt;&lt;div&gt;Количество&lt;/div&gt;" style="align=left;strokeColor=none;fillColor=none;spacingLeft=4;spacingRight=4;fontSize=12;verticalAlign=top;resizable=0;rotatable=0;part=1;html=1;whiteSpace=wrap;" parent="qZmKMY-UGPdEu0IypBca-5" vertex="1">
          <mxGeometry y="50" width="160" height="70" as="geometry" />
        </mxCell>
        <mxCell id="qZmKMY-UGPdEu0IypBca-9" value="Статус" style="swimlane;childLayout=stackLayout;horizontal=1;startSize=50;horizontalStack=0;rounded=1;fontSize=14;fontStyle=0;strokeWidth=2;resizeParent=0;resizeLast=1;shadow=0;dashed=0;align=center;arcSize=4;whiteSpace=wrap;html=1;" parent="qZmKMY-UGPdEu0IypBca-1" vertex="1">
          <mxGeometry x="827" y="200" width="160" height="120" as="geometry" />
        </mxCell>
        <mxCell id="qZmKMY-UGPdEu0IypBca-10" value="*Номер&lt;div&gt;Статус&lt;/div&gt;" style="align=left;strokeColor=none;fillColor=none;spacingLeft=4;spacingRight=4;fontSize=12;verticalAlign=top;resizable=0;rotatable=0;part=1;html=1;whiteSpace=wrap;" parent="qZmKMY-UGPdEu0IypBca-9" vertex="1">
          <mxGeometry y="50" width="160" height="70" as="geometry" />
        </mxCell>
        <mxCell id="qZmKMY-UGPdEu0IypBca-11" value="Транспортное&lt;div&gt;&amp;nbsp;средство&lt;/div&gt;" style="swimlane;childLayout=stackLayout;horizontal=1;startSize=50;horizontalStack=0;rounded=1;fontSize=14;fontStyle=0;strokeWidth=2;resizeParent=0;resizeLast=1;shadow=0;dashed=0;align=center;arcSize=4;whiteSpace=wrap;html=1;" parent="qZmKMY-UGPdEu0IypBca-1" vertex="1">
          <mxGeometry x="1000" y="20" width="170" height="150" as="geometry" />
        </mxCell>
        <mxCell id="qZmKMY-UGPdEu0IypBca-12" value="*Государственный номер&lt;div&gt;Тип средства&lt;/div&gt;" style="align=left;strokeColor=none;fillColor=none;spacingLeft=4;spacingRight=4;fontSize=12;verticalAlign=top;resizable=0;rotatable=0;part=1;html=1;whiteSpace=wrap;" parent="qZmKMY-UGPdEu0IypBca-11" vertex="1">
          <mxGeometry y="50" width="170" height="100" as="geometry" />
        </mxCell>
        <mxCell id="qZmKMY-UGPdEu0IypBca-13" value="Тариф" style="swimlane;childLayout=stackLayout;horizontal=1;startSize=50;horizontalStack=0;rounded=1;fontSize=14;fontStyle=0;strokeWidth=2;resizeParent=0;resizeLast=1;shadow=0;dashed=0;align=center;arcSize=4;whiteSpace=wrap;html=1;" parent="qZmKMY-UGPdEu0IypBca-1" vertex="1">
          <mxGeometry x="1530" y="-160" width="160" height="140" as="geometry" />
        </mxCell>
        <mxCell id="qZmKMY-UGPdEu0IypBca-14" value="*Номер тарифа&lt;div&gt;Описание&lt;br&gt;&lt;div&gt;Стоимость&lt;/div&gt;&lt;div&gt;Тип средства&lt;/div&gt;&lt;div&gt;Время стоянки&lt;/div&gt;&lt;/div&gt;" style="align=left;strokeColor=none;fillColor=none;spacingLeft=4;spacingRight=4;fontSize=12;verticalAlign=top;resizable=0;rotatable=0;part=1;html=1;whiteSpace=wrap;" parent="qZmKMY-UGPdEu0IypBca-13" vertex="1">
          <mxGeometry y="50" width="160" height="90" as="geometry" />
        </mxCell>
        <mxCell id="qZmKMY-UGPdEu0IypBca-15" value="Оплата" style="swimlane;childLayout=stackLayout;horizontal=1;startSize=50;horizontalStack=0;rounded=1;fontSize=14;fontStyle=0;strokeWidth=2;resizeParent=0;resizeLast=1;shadow=0;dashed=0;align=center;arcSize=4;whiteSpace=wrap;html=1;" parent="qZmKMY-UGPdEu0IypBca-1" vertex="1">
          <mxGeometry x="1640" y="90" width="170" height="120" as="geometry" />
        </mxCell>
        <mxCell id="qZmKMY-UGPdEu0IypBca-16" value="*Номер чека&lt;div&gt;&lt;div&gt;Сумма&lt;/div&gt;&lt;div&gt;Дата и время оплаты&lt;/div&gt;&lt;/div&gt;" style="align=left;strokeColor=none;fillColor=none;spacingLeft=4;spacingRight=4;fontSize=12;verticalAlign=top;resizable=0;rotatable=0;part=1;html=1;whiteSpace=wrap;" parent="qZmKMY-UGPdEu0IypBca-15" vertex="1">
          <mxGeometry y="50" width="170" height="70" as="geometry" />
        </mxCell>
        <mxCell id="qZmKMY-UGPdEu0IypBca-17" value="" style="edgeStyle=entityRelationEdgeStyle;fontSize=12;html=1;endArrow=ERmandOne;endFill=0;rounded=0;entryX=0;entryY=0.25;entryDx=0;entryDy=0;exitX=1;exitY=0.25;exitDx=0;exitDy=0;startArrow=ERzeroToMany;startFill=0;" parent="qZmKMY-UGPdEu0IypBca-1" source="qZmKMY-UGPdEu0IypBca-6" target="qZmKMY-UGPdEu0IypBca-4" edge="1">
          <mxGeometry width="100" height="100" relative="1" as="geometry">
            <mxPoint x="690" y="340" as="sourcePoint" />
            <mxPoint x="790" y="240" as="targetPoint" />
          </mxGeometry>
        </mxCell>
        <mxCell id="qZmKMY-UGPdEu0IypBca-18" value="Содержит" style="edgeLabel;html=1;align=center;verticalAlign=middle;resizable=0;points=[];" parent="qZmKMY-UGPdEu0IypBca-17" vertex="1" connectable="0">
          <mxGeometry x="0.0535" relative="1" as="geometry">
            <mxPoint as="offset" />
          </mxGeometry>
        </mxCell>
        <mxCell id="qZmKMY-UGPdEu0IypBca-20" value="" style="edgeStyle=entityRelationEdgeStyle;fontSize=12;html=1;endArrow=ERmandOne;startArrow=ERoneToMany;rounded=0;entryX=0;entryY=0.25;entryDx=0;entryDy=0;exitX=1;exitY=0.25;exitDx=0;exitDy=0;endFill=0;startFill=0;" parent="qZmKMY-UGPdEu0IypBca-1" source="qZmKMY-UGPdEu0IypBca-31" target="qZmKMY-UGPdEu0IypBca-10" edge="1">
          <mxGeometry width="100" height="100" relative="1" as="geometry">
            <mxPoint x="970" y="370" as="sourcePoint" />
            <mxPoint x="1087" y="270" as="targetPoint" />
          </mxGeometry>
        </mxCell>
        <mxCell id="qZmKMY-UGPdEu0IypBca-21" value="Находится" style="edgeLabel;html=1;align=center;verticalAlign=middle;resizable=0;points=[];" parent="qZmKMY-UGPdEu0IypBca-20" vertex="1" connectable="0">
          <mxGeometry x="-0.0811" y="-1" relative="1" as="geometry">
            <mxPoint as="offset" />
          </mxGeometry>
        </mxCell>
        <mxCell id="qZmKMY-UGPdEu0IypBca-22" value="" style="fontSize=12;html=1;endArrow=ERoneToMany;startArrow=ERmandOne;rounded=0;entryX=-0.018;entryY=0.15;entryDx=0;entryDy=0;entryPerimeter=0;exitX=1;exitY=0.357;exitDx=0;exitDy=0;exitPerimeter=0;endFill=0;edgeStyle=orthogonalEdgeStyle;" parent="qZmKMY-UGPdEu0IypBca-1" source="qZmKMY-UGPdEu0IypBca-4" target="qZmKMY-UGPdEu0IypBca-12" edge="1">
          <mxGeometry width="100" height="100" relative="1" as="geometry">
            <mxPoint x="930" y="190" as="sourcePoint" />
            <mxPoint x="1030" y="90" as="targetPoint" />
            <Array as="points">
              <mxPoint x="1050" y="-75" />
              <mxPoint x="1050" />
              <mxPoint x="970" />
              <mxPoint x="970" y="85" />
            </Array>
          </mxGeometry>
        </mxCell>
        <mxCell id="qZmKMY-UGPdEu0IypBca-23" value="Содержит" style="edgeLabel;html=1;align=center;verticalAlign=middle;resizable=0;points=[];" parent="qZmKMY-UGPdEu0IypBca-22" vertex="1" connectable="0">
          <mxGeometry x="0.0968" y="-1" relative="1" as="geometry">
            <mxPoint as="offset" />
          </mxGeometry>
        </mxCell>
        <mxCell id="qZmKMY-UGPdEu0IypBca-24" value="" style="edgeStyle=orthogonalEdgeStyle;fontSize=12;html=1;endArrow=ERzeroToOne;endFill=0;rounded=0;exitX=1;exitY=0.5;exitDx=0;exitDy=0;entryX=-0.006;entryY=0.118;entryDx=0;entryDy=0;entryPerimeter=0;startArrow=ERmandOne;startFill=0;" parent="qZmKMY-UGPdEu0IypBca-1" source="qZmKMY-UGPdEu0IypBca-35" target="qZmKMY-UGPdEu0IypBca-16" edge="1">
          <mxGeometry width="100" height="100" relative="1" as="geometry">
            <mxPoint x="1200" y="330" as="sourcePoint" />
            <mxPoint x="1300" y="230" as="targetPoint" />
          </mxGeometry>
        </mxCell>
        <mxCell id="qZmKMY-UGPdEu0IypBca-25" value="Принадлежит" style="edgeLabel;html=1;align=center;verticalAlign=middle;resizable=0;points=[];" parent="qZmKMY-UGPdEu0IypBca-24" vertex="1" connectable="0">
          <mxGeometry x="-0.0416" y="-1" relative="1" as="geometry">
            <mxPoint as="offset" />
          </mxGeometry>
        </mxCell>
        <mxCell id="qZmKMY-UGPdEu0IypBca-26" value="" style="fontSize=12;html=1;endArrow=ERzeroToMany;startArrow=ERmandOne;rounded=0;entryX=0.42;entryY=1.013;entryDx=0;entryDy=0;entryPerimeter=0;exitX=1.004;exitY=0.65;exitDx=0;exitDy=0;endFill=0;startFill=0;edgeStyle=orthogonalEdgeStyle;exitPerimeter=0;" parent="qZmKMY-UGPdEu0IypBca-1" source="qZmKMY-UGPdEu0IypBca-31" target="qZmKMY-UGPdEu0IypBca-35" edge="1">
          <mxGeometry width="100" height="100" relative="1" as="geometry">
            <mxPoint x="970" y="345" as="sourcePoint" />
            <mxPoint x="1020" y="330" as="targetPoint" />
            <Array as="points">
              <mxPoint x="790" y="312" />
              <mxPoint x="790" y="344" />
              <mxPoint x="1336" y="344" />
            </Array>
          </mxGeometry>
        </mxCell>
        <mxCell id="qZmKMY-UGPdEu0IypBca-27" value="Принадлежит" style="edgeLabel;html=1;align=center;verticalAlign=middle;resizable=0;points=[];" parent="qZmKMY-UGPdEu0IypBca-26" vertex="1" connectable="0">
          <mxGeometry x="0.2743" y="4" relative="1" as="geometry">
            <mxPoint as="offset" />
          </mxGeometry>
        </mxCell>
        <mxCell id="qZmKMY-UGPdEu0IypBca-28" value="" style="edgeStyle=entityRelationEdgeStyle;fontSize=12;html=1;endArrow=ERoneToMany;startArrow=ERmandOne;rounded=0;exitX=0.981;exitY=0.157;exitDx=0;exitDy=0;exitPerimeter=0;entryX=-0.006;entryY=0.157;entryDx=0;entryDy=0;entryPerimeter=0;endFill=0;startFill=0;" parent="qZmKMY-UGPdEu0IypBca-1" source="qZmKMY-UGPdEu0IypBca-4" target="qZmKMY-UGPdEu0IypBca-14" edge="1">
          <mxGeometry width="100" height="100" relative="1" as="geometry">
            <mxPoint x="987" y="130" as="sourcePoint" />
            <mxPoint x="1280" y="190" as="targetPoint" />
          </mxGeometry>
        </mxCell>
        <mxCell id="qZmKMY-UGPdEu0IypBca-29" value="Содержит" style="edgeLabel;html=1;align=center;verticalAlign=middle;resizable=0;points=[];" parent="qZmKMY-UGPdEu0IypBca-28" vertex="1" connectable="0">
          <mxGeometry x="-0.0857" relative="1" as="geometry">
            <mxPoint as="offset" />
          </mxGeometry>
        </mxCell>
        <mxCell id="qZmKMY-UGPdEu0IypBca-30" value="Парковочное место" style="swimlane;childLayout=stackLayout;horizontal=1;startSize=50;horizontalStack=0;rounded=1;fontSize=14;fontStyle=0;strokeWidth=2;resizeParent=0;resizeLast=1;shadow=0;dashed=0;align=center;arcSize=4;whiteSpace=wrap;html=1;" parent="qZmKMY-UGPdEu0IypBca-1" vertex="1">
          <mxGeometry x="510" y="190" width="230" height="160" as="geometry" />
        </mxCell>
        <mxCell id="qZmKMY-UGPdEu0IypBca-31" value="&lt;div&gt;*Номер&lt;/div&gt;Номер места&lt;div&gt;Тип места&lt;/div&gt;&lt;div&gt;Заблокированные места&lt;/div&gt;&lt;div&gt;Статус места&lt;/div&gt;" style="align=left;strokeColor=none;fillColor=none;spacingLeft=4;spacingRight=4;fontSize=12;verticalAlign=top;resizable=0;rotatable=0;part=1;html=1;whiteSpace=wrap;" parent="qZmKMY-UGPdEu0IypBca-30" vertex="1">
          <mxGeometry y="50" width="230" height="110" as="geometry" />
        </mxCell>
        <mxCell id="qZmKMY-UGPdEu0IypBca-34" value="Сессия стоянки" style="swimlane;childLayout=stackLayout;horizontal=1;startSize=50;horizontalStack=0;rounded=1;fontSize=14;fontStyle=0;strokeWidth=2;resizeParent=0;resizeLast=1;shadow=0;dashed=0;align=center;arcSize=4;whiteSpace=wrap;html=1;" parent="qZmKMY-UGPdEu0IypBca-1" vertex="1">
          <mxGeometry x="1260" y="10" width="180" height="230" as="geometry" />
        </mxCell>
        <mxCell id="qZmKMY-UGPdEu0IypBca-35" value="&lt;div&gt;*Номер сессии&lt;/div&gt;*Государственный номер&lt;div&gt;*Номер тарифа&lt;br&gt;Дата и время начала сессии стоянки&lt;/div&gt;&lt;div&gt;Дата и время окончания сессии стоянки&lt;/div&gt;&lt;div&gt;Длительность сессии стоянки&lt;/div&gt;&lt;div&gt;Тип средства&lt;/div&gt;&lt;div&gt;Стоимость&lt;/div&gt;" style="align=left;strokeColor=none;fillColor=none;spacingLeft=4;spacingRight=4;fontSize=12;verticalAlign=top;resizable=0;rotatable=0;part=1;html=1;whiteSpace=wrap;" parent="qZmKMY-UGPdEu0IypBca-34" vertex="1">
          <mxGeometry y="50" width="180" height="180" as="geometry" />
        </mxCell>
        <mxCell id="qZmKMY-UGPdEu0IypBca-36" value="" style="edgeStyle=orthogonalEdgeStyle;fontSize=12;html=1;endArrow=ERoneToMany;startArrow=ERmandOne;rounded=0;entryX=0.001;entryY=0.118;entryDx=0;entryDy=0;entryPerimeter=0;exitX=0.994;exitY=0.089;exitDx=0;exitDy=0;exitPerimeter=0;endFill=0;startFill=0;" parent="qZmKMY-UGPdEu0IypBca-1" source="qZmKMY-UGPdEu0IypBca-12" target="qZmKMY-UGPdEu0IypBca-35" edge="1">
          <mxGeometry width="100" height="100" relative="1" as="geometry">
            <mxPoint x="1191" y="230" as="sourcePoint" />
            <mxPoint x="1200" y="60" as="targetPoint" />
          </mxGeometry>
        </mxCell>
        <mxCell id="qZmKMY-UGPdEu0IypBca-37" value="Содержит" style="edgeLabel;html=1;align=center;verticalAlign=middle;resizable=0;points=[];" parent="qZmKMY-UGPdEu0IypBca-36" vertex="1" connectable="0">
          <mxGeometry x="-0.1029" y="1" relative="1" as="geometry">
            <mxPoint as="offset" />
          </mxGeometry>
        </mxCell>
        <mxCell id="qZmKMY-UGPdEu0IypBca-38" value="" style="edgeStyle=orthogonalEdgeStyle;fontSize=12;html=1;endArrow=ERzeroToOne;startArrow=ERzeroToMany;rounded=0;entryX=0;entryY=0.5;entryDx=0;entryDy=0;endFill=0;startFill=0;exitX=1.006;exitY=0.111;exitDx=0;exitDy=0;exitPerimeter=0;" parent="qZmKMY-UGPdEu0IypBca-1" source="qZmKMY-UGPdEu0IypBca-35" target="qZmKMY-UGPdEu0IypBca-14" edge="1">
          <mxGeometry width="100" height="100" relative="1" as="geometry">
            <mxPoint x="1470" y="80" as="sourcePoint" />
            <mxPoint x="1330" y="150" as="targetPoint" />
          </mxGeometry>
        </mxCell>
        <mxCell id="qZmKMY-UGPdEu0IypBca-39" value="Содержит" style="edgeLabel;html=1;align=center;verticalAlign=middle;resizable=0;points=[];" parent="qZmKMY-UGPdEu0IypBca-38" vertex="1" connectable="0">
          <mxGeometry x="-0.038" y="1" relative="1" as="geometry">
            <mxPoint as="offset" />
          </mxGeometry>
        </mxCell>
        <mxCell id="qZmKMY-UGPdEu0IypBca-42" value="" style="rounded=0;whiteSpace=wrap;html=1;" parent="qZmKMY-UGPdEu0IypBca-1" vertex="1">
          <mxGeometry x="310" y="640" width="350" height="310" as="geometry" />
        </mxCell>
        <mxCell id="qZmKMY-UGPdEu0IypBca-43" value="" style="endArrow=none;html=1;rounded=0;exitX=0.008;exitY=0.213;exitDx=0;exitDy=0;exitPerimeter=0;entryX=1.005;entryY=0.209;entryDx=0;entryDy=0;entryPerimeter=0;" parent="qZmKMY-UGPdEu0IypBca-1" edge="1">
          <mxGeometry width="50" height="50" relative="1" as="geometry">
            <mxPoint x="310.00000000000006" y="721.2399999999998" as="sourcePoint" />
            <mxPoint x="658.9499999999998" y="720" as="targetPoint" />
          </mxGeometry>
        </mxCell>
        <mxCell id="qZmKMY-UGPdEu0IypBca-44" value="" style="endArrow=none;html=1;rounded=0;exitX=0.008;exitY=0.213;exitDx=0;exitDy=0;exitPerimeter=0;entryX=1.005;entryY=0.209;entryDx=0;entryDy=0;entryPerimeter=0;" parent="qZmKMY-UGPdEu0IypBca-1" edge="1">
          <mxGeometry width="50" height="50" relative="1" as="geometry">
            <mxPoint x="311" y="795.5" as="sourcePoint" />
            <mxPoint x="660" y="794.5" as="targetPoint" />
          </mxGeometry>
        </mxCell>
        <mxCell id="qZmKMY-UGPdEu0IypBca-45" value="" style="endArrow=none;html=1;rounded=0;exitX=0.008;exitY=0.213;exitDx=0;exitDy=0;exitPerimeter=0;entryX=1.005;entryY=0.209;entryDx=0;entryDy=0;entryPerimeter=0;" parent="qZmKMY-UGPdEu0IypBca-1" edge="1">
          <mxGeometry width="50" height="50" relative="1" as="geometry">
            <mxPoint x="310" y="881" as="sourcePoint" />
            <mxPoint x="659" y="880" as="targetPoint" />
          </mxGeometry>
        </mxCell>
        <mxCell id="qZmKMY-UGPdEu0IypBca-46" value="" style="endArrow=none;html=1;rounded=0;entryX=0.269;entryY=0.008;entryDx=0;entryDy=0;entryPerimeter=0;exitX=0.269;exitY=1;exitDx=0;exitDy=0;exitPerimeter=0;" parent="qZmKMY-UGPdEu0IypBca-1" edge="1">
          <mxGeometry width="50" height="50" relative="1" as="geometry">
            <mxPoint x="400" y="947.52" as="sourcePoint" />
            <mxPoint x="400" y="639.9999999999995" as="targetPoint" />
          </mxGeometry>
        </mxCell>
        <mxCell id="qZmKMY-UGPdEu0IypBca-47" value="" style="endArrow=none;html=1;rounded=0;entryX=0.269;entryY=0.008;entryDx=0;entryDy=0;entryPerimeter=0;exitX=0.269;exitY=1;exitDx=0;exitDy=0;exitPerimeter=0;" parent="qZmKMY-UGPdEu0IypBca-1" edge="1">
          <mxGeometry width="50" height="50" relative="1" as="geometry">
            <mxPoint x="490" y="950" as="sourcePoint" />
            <mxPoint x="490" y="642" as="targetPoint" />
          </mxGeometry>
        </mxCell>
        <mxCell id="qZmKMY-UGPdEu0IypBca-48" value="" style="endArrow=none;html=1;rounded=0;entryX=0.269;entryY=0.008;entryDx=0;entryDy=0;entryPerimeter=0;exitX=0.269;exitY=1;exitDx=0;exitDy=0;exitPerimeter=0;" parent="qZmKMY-UGPdEu0IypBca-1" edge="1">
          <mxGeometry width="50" height="50" relative="1" as="geometry">
            <mxPoint x="580" y="950" as="sourcePoint" />
            <mxPoint x="580" y="642" as="targetPoint" />
          </mxGeometry>
        </mxCell>
        <mxCell id="qZmKMY-UGPdEu0IypBca-49" value="Парковка в моем представлении))" style="text;html=1;align=center;verticalAlign=middle;whiteSpace=wrap;rounded=0;" parent="qZmKMY-UGPdEu0IypBca-1" vertex="1">
          <mxGeometry x="350" y="600" width="260" height="30" as="geometry" />
        </mxCell>
        <mxCell id="qZmKMY-UGPdEu0IypBca-50" value="1.1.S" style="text;html=1;align=center;verticalAlign=middle;whiteSpace=wrap;rounded=0;" parent="qZmKMY-UGPdEu0IypBca-1" vertex="1">
          <mxGeometry x="320" y="660" width="60" height="30" as="geometry" />
        </mxCell>
        <mxCell id="qZmKMY-UGPdEu0IypBca-51" value="1.2.S" style="text;html=1;align=center;verticalAlign=middle;whiteSpace=wrap;rounded=0;" parent="qZmKMY-UGPdEu0IypBca-1" vertex="1">
          <mxGeometry x="410" y="665" width="60" height="30" as="geometry" />
        </mxCell>
        <mxCell id="qZmKMY-UGPdEu0IypBca-52" value="1.4.S" style="text;html=1;align=center;verticalAlign=middle;whiteSpace=wrap;rounded=0;" parent="qZmKMY-UGPdEu0IypBca-1" vertex="1">
          <mxGeometry x="420" y="740" width="60" height="30" as="geometry" />
        </mxCell>
        <mxCell id="qZmKMY-UGPdEu0IypBca-53" value="2.1.S" style="text;html=1;align=center;verticalAlign=middle;whiteSpace=wrap;rounded=0;" parent="qZmKMY-UGPdEu0IypBca-1" vertex="1">
          <mxGeometry x="320" y="830" width="60" height="30" as="geometry" />
        </mxCell>
        <mxCell id="qZmKMY-UGPdEu0IypBca-54" value="2.2.S" style="text;html=1;align=center;verticalAlign=middle;whiteSpace=wrap;rounded=0;" parent="qZmKMY-UGPdEu0IypBca-1" vertex="1">
          <mxGeometry x="420" y="830" width="60" height="30" as="geometry" />
        </mxCell>
        <mxCell id="qZmKMY-UGPdEu0IypBca-55" value="2.3.S" style="text;html=1;align=center;verticalAlign=middle;whiteSpace=wrap;rounded=0;" parent="qZmKMY-UGPdEu0IypBca-1" vertex="1">
          <mxGeometry x="330" y="900" width="60" height="30" as="geometry" />
        </mxCell>
        <mxCell id="qZmKMY-UGPdEu0IypBca-56" value="2.1.S" style="text;html=1;align=center;verticalAlign=middle;whiteSpace=wrap;rounded=0;" parent="qZmKMY-UGPdEu0IypBca-1" vertex="1">
          <mxGeometry x="420" y="900" width="60" height="30" as="geometry" />
        </mxCell>
        <mxCell id="qZmKMY-UGPdEu0IypBca-57" value="Я себе представила, что вся парковка будет размечена следующим образом:&amp;nbsp;&lt;div&gt;&lt;span style=&quot;background-color: transparent; color: light-dark(rgb(0, 0, 0), rgb(255, 255, 255));&quot;&gt;&lt;font style=&quot;color: light-dark(rgb(0, 0, 255), rgb(255, 255, 255));&quot;&gt;Синим прямоугольником&lt;/font&gt;&lt;/span&gt;&lt;span style=&quot;background-color: transparent; color: light-dark(rgb(0, 0, 0), rgb(255, 255, 255));&quot;&gt;&amp;nbsp;я выделила парковочное место размером L&lt;/span&gt;&lt;div&gt;&lt;span style=&quot;background-color: transparent; color: light-dark(rgb(0, 0, 0), rgb(255, 255, 255));&quot;&gt;&lt;br&gt;&lt;/span&gt;&lt;/div&gt;&lt;span style=&quot;background-color: transparent; color: light-dark(rgb(0, 0, 0), rgb(255, 255, 255));&quot;&gt;&lt;font style=&quot;color: light-dark(rgb(51, 255, 51), rgb(255, 255, 255));&quot;&gt;Зеленый прямоугольник&lt;/font&gt;&lt;/span&gt;&lt;span style=&quot;background-color: transparent; color: light-dark(rgb(0, 0, 0), rgb(255, 255, 255));&quot;&gt;&amp;nbsp;- парковочное место размером М&lt;/span&gt;&amp;nbsp;&lt;/div&gt;&lt;div&gt;&lt;br&gt;&lt;/div&gt;&lt;div&gt;Черный квадрат - парковочное место размером S&lt;br&gt;&lt;div&gt;&lt;br&gt;&lt;/div&gt;&lt;div&gt;1.1.S - номер парковочного места (точный № места), тогда 1.1.S + 1.2.S = 1.1.M,&amp;nbsp;&lt;div&gt;1.3.S + 1.4.S = 1.2. M, тогда 1.1.M + 1.2. M = 1.1.L.&amp;nbsp;&lt;/div&gt;&lt;div&gt;&lt;span style=&quot;background-color: transparent; color: light-dark(rgb(0, 0, 0), rgb(255, 255, 255));&quot;&gt;&lt;br&gt;&lt;/span&gt;&lt;/div&gt;&lt;div&gt;Получается, если на парковочное место №&amp;nbsp;&lt;span style=&quot;background-color: transparent; color: light-dark(rgb(0, 0, 0), rgb(255, 255, 255));&quot;&gt;1.1.S заехал мотоцикл, то на парковочное место №&amp;nbsp;&lt;/span&gt;&lt;span style=&quot;background-color: transparent; color: light-dark(rgb(0, 0, 0), rgb(255, 255, 255));&quot;&gt;1.1.M легковой автомобиль&amp;nbsp;&lt;/span&gt;&lt;/div&gt;&lt;div&gt;&lt;span style=&quot;background-color: transparent; color: light-dark(rgb(0, 0, 0), rgb(255, 255, 255));&quot;&gt;не поместится, т.е. у места №&amp;nbsp;&lt;/span&gt;&lt;span style=&quot;background-color: transparent; color: light-dark(rgb(0, 0, 0), rgb(255, 255, 255));&quot;&gt;1.1.M будет статус &quot;занято&quot;, следовательно, место 1.1.L - &quot;занято&quot;.&amp;nbsp;&lt;/span&gt;&lt;/div&gt;&lt;div&gt;&lt;br&gt;&lt;/div&gt;&lt;/div&gt;&lt;/div&gt;" style="text;html=1;align=center;verticalAlign=middle;whiteSpace=wrap;rounded=0;" parent="qZmKMY-UGPdEu0IypBca-1" vertex="1">
          <mxGeometry x="30" y="610" width="260" height="330" as="geometry" />
        </mxCell>
        <mxCell id="qZmKMY-UGPdEu0IypBca-58" value="3.1.S" style="text;html=1;align=center;verticalAlign=middle;whiteSpace=wrap;rounded=0;" parent="qZmKMY-UGPdEu0IypBca-1" vertex="1">
          <mxGeometry x="510" y="660" width="60" height="30" as="geometry" />
        </mxCell>
        <mxCell id="qZmKMY-UGPdEu0IypBca-59" value="3.2.S" style="text;html=1;align=center;verticalAlign=middle;whiteSpace=wrap;rounded=0;" parent="qZmKMY-UGPdEu0IypBca-1" vertex="1">
          <mxGeometry x="590" y="665" width="60" height="30" as="geometry" />
        </mxCell>
        <mxCell id="qZmKMY-UGPdEu0IypBca-60" value="3.3.S" style="text;html=1;align=center;verticalAlign=middle;whiteSpace=wrap;rounded=0;" parent="qZmKMY-UGPdEu0IypBca-1" vertex="1">
          <mxGeometry x="510" y="740" width="60" height="30" as="geometry" />
        </mxCell>
        <mxCell id="qZmKMY-UGPdEu0IypBca-61" value="3.4.S" style="text;html=1;align=center;verticalAlign=middle;whiteSpace=wrap;rounded=0;" parent="qZmKMY-UGPdEu0IypBca-1" vertex="1">
          <mxGeometry x="590" y="740" width="60" height="30" as="geometry" />
        </mxCell>
        <mxCell id="qZmKMY-UGPdEu0IypBca-62" value="4.1.S" style="text;html=1;align=center;verticalAlign=middle;whiteSpace=wrap;rounded=0;" parent="qZmKMY-UGPdEu0IypBca-1" vertex="1">
          <mxGeometry x="510" y="830" width="60" height="30" as="geometry" />
        </mxCell>
        <mxCell id="qZmKMY-UGPdEu0IypBca-63" value="4.2.S" style="text;html=1;align=center;verticalAlign=middle;whiteSpace=wrap;rounded=0;" parent="qZmKMY-UGPdEu0IypBca-1" vertex="1">
          <mxGeometry x="590" y="830" width="60" height="30" as="geometry" />
        </mxCell>
        <mxCell id="qZmKMY-UGPdEu0IypBca-64" value="4.3.S" style="text;html=1;align=center;verticalAlign=middle;whiteSpace=wrap;rounded=0;" parent="qZmKMY-UGPdEu0IypBca-1" vertex="1">
          <mxGeometry x="510" y="900" width="60" height="30" as="geometry" />
        </mxCell>
        <mxCell id="qZmKMY-UGPdEu0IypBca-65" value="4.4.S" style="text;html=1;align=center;verticalAlign=middle;whiteSpace=wrap;rounded=0;" parent="qZmKMY-UGPdEu0IypBca-1" vertex="1">
          <mxGeometry x="590" y="900" width="60" height="30" as="geometry" />
        </mxCell>
        <mxCell id="qZmKMY-UGPdEu0IypBca-66" value="" style="swimlane;startSize=0;strokeColor=light-dark(#363bd3, #ededed);" parent="qZmKMY-UGPdEu0IypBca-1" vertex="1">
          <mxGeometry x="320" y="650" width="170" height="140" as="geometry" />
        </mxCell>
        <mxCell id="qZmKMY-UGPdEu0IypBca-67" value="" style="swimlane;startSize=0;strokeColor=light-dark(#2edc4b, #ededed);" parent="qZmKMY-UGPdEu0IypBca-66" vertex="1">
          <mxGeometry x="5" y="10" width="160" height="60" as="geometry" />
        </mxCell>
        <mxCell id="qZmKMY-UGPdEu0IypBca-68" value="" style="swimlane;startSize=0;strokeColor=light-dark(#2edc4b, #ededed);" parent="qZmKMY-UGPdEu0IypBca-66" vertex="1">
          <mxGeometry x="10" y="80" width="150" height="60" as="geometry" />
        </mxCell>
        <mxCell id="qZmKMY-UGPdEu0IypBca-69" value="1.3.S" style="text;html=1;align=center;verticalAlign=middle;whiteSpace=wrap;rounded=0;strokeColor=none;" parent="qZmKMY-UGPdEu0IypBca-68" vertex="1">
          <mxGeometry y="10" width="60" height="30" as="geometry" />
        </mxCell>
        <mxCell id="qZmKMY-UGPdEu0IypBca-70" value="Атрибут &quot;Заблокированные места&quot; будет отражать логику парковки, т.е. если место 1.1.M имеет статус занято, то места: 1.1.S, 1.2.S, 1.1.L будут иметь статус заблокированы (не доступны для парковки).&amp;nbsp;" style="shape=note;whiteSpace=wrap;html=1;backgroundOutline=1;darkOpacity=0.05;fillColor=#fff2cc;strokeColor=#d6b656;" parent="qZmKMY-UGPdEu0IypBca-1" vertex="1">
          <mxGeometry x="480" y="430" width="250" height="140" as="geometry" />
        </mxCell>
        <mxCell id="OigdaGQ124TJyGixHXFk-0" value="Тип места" style="swimlane;childLayout=stackLayout;horizontal=1;startSize=50;horizontalStack=0;rounded=1;fontSize=14;fontStyle=0;strokeWidth=2;resizeParent=0;resizeLast=1;shadow=0;dashed=0;align=center;arcSize=4;whiteSpace=wrap;html=1;" parent="qZmKMY-UGPdEu0IypBca-1" vertex="1">
          <mxGeometry x="520" y="20" width="160" height="120" as="geometry" />
        </mxCell>
        <mxCell id="OigdaGQ124TJyGixHXFk-1" value="*Номер&lt;div&gt;Тип места&lt;/div&gt;" style="align=left;strokeColor=none;fillColor=none;spacingLeft=4;spacingRight=4;fontSize=12;verticalAlign=top;resizable=0;rotatable=0;part=1;html=1;whiteSpace=wrap;" parent="OigdaGQ124TJyGixHXFk-0" vertex="1">
          <mxGeometry y="50" width="160" height="70" as="geometry" />
        </mxCell>
        <mxCell id="OigdaGQ124TJyGixHXFk-3" value="" style="endArrow=ERmandOne;html=1;rounded=0;exitX=0;exitY=0.5;exitDx=0;exitDy=0;entryX=-0.025;entryY=0.171;entryDx=0;entryDy=0;entryPerimeter=0;startArrow=ERzeroToMany;startFill=0;endFill=0;edgeStyle=orthogonalEdgeStyle;" parent="qZmKMY-UGPdEu0IypBca-1" source="qZmKMY-UGPdEu0IypBca-6" target="OigdaGQ124TJyGixHXFk-1" edge="1">
          <mxGeometry width="50" height="50" relative="1" as="geometry">
            <mxPoint x="720" y="150" as="sourcePoint" />
            <mxPoint x="770" y="100" as="targetPoint" />
            <Array as="points">
              <mxPoint x="460" y="-65" />
              <mxPoint x="460" y="82" />
            </Array>
          </mxGeometry>
        </mxCell>
        <mxCell id="ObA4a_8nX8yYrhJ-Gnjc-0" value="Содержит" style="edgeLabel;html=1;align=center;verticalAlign=middle;resizable=0;points=[];" parent="OigdaGQ124TJyGixHXFk-3" vertex="1" connectable="0">
          <mxGeometry x="0.1064" y="1" relative="1" as="geometry">
            <mxPoint as="offset" />
          </mxGeometry>
        </mxCell>
        <mxCell id="OigdaGQ124TJyGixHXFk-4" value="" style="endArrow=ERmandOne;html=1;rounded=0;entryX=0;entryY=0.5;entryDx=0;entryDy=0;exitX=-0.017;exitY=0.138;exitDx=0;exitDy=0;edgeStyle=orthogonalEdgeStyle;startArrow=ERoneToMany;startFill=0;endFill=0;exitPerimeter=0;" parent="qZmKMY-UGPdEu0IypBca-1" source="qZmKMY-UGPdEu0IypBca-31" target="OigdaGQ124TJyGixHXFk-1" edge="1">
          <mxGeometry width="50" height="50" relative="1" as="geometry">
            <mxPoint x="808.0799999999999" y="335" as="sourcePoint" />
            <mxPoint x="770" y="180" as="targetPoint" />
            <Array as="points">
              <mxPoint x="460" y="255" />
              <mxPoint x="460" y="105" />
            </Array>
          </mxGeometry>
        </mxCell>
        <mxCell id="ObA4a_8nX8yYrhJ-Gnjc-1" value="Содержит" style="edgeLabel;html=1;align=center;verticalAlign=middle;resizable=0;points=[];" parent="OigdaGQ124TJyGixHXFk-4" vertex="1" connectable="0">
          <mxGeometry x="-0.063" y="1" relative="1" as="geometry">
            <mxPoint as="offset" />
          </mxGeometry>
        </mxCell>
      </root>
    </mxGraphModel>
  </diagram>
</mxfile>
